FrancoisOne-Regular.ufo
<glyph name="ampersand" format="1">
  <advance width="1275"/>
  <unicode hex="0026"/>
  <outline>
    <contour>
      <point x="39" y="375" type="curve" smooth="yes"/>
      <point x="39" y="140"/>
      <point x="205" y="-28"/>
      <point x="409" y="-28" type="curve" smooth="yes"/>
      <point x="596" y="-28"/>
      <point x="734" y="58"/>
      <point x="840" y="153" type="curve"/>
      <point x="947" y="46"/>
      <point x="992" y="-14"/>
      <point x="1227" y="-14" type="curve"/>
      <point x="1227" y="244" type="line"/>
      <point x="1127" y="256"/>
      <point x="1063" y="293"/>
      <point x="1003" y="353" type="curve"/>
      <point x="1026" y="390"/>
      <point x="1049" y="430"/>
      <point x="1071" y="473" type="curve" smooth="yes"/>
      <point x="1108" y="546"/>
      <point x="1151" y="646"/>
      <point x="1175" y="754" type="curve"/>
      <point x="948" y="825" type="line"/>
      <point x="933" y="754"/>
      <point x="909" y="681"/>
      <point x="888" y="625" type="curve" smooth="yes"/>
      <point x="876" y="592"/>
      <point x="863" y="561"/>
      <point x="850" y="531" type="curve"/>
      <point x="663" y="819" type="line"/>
      <point x="783" y="902"/>
      <point x="928" y="1046"/>
      <point x="928" y="1214" type="curve" smooth="yes"/>
      <point x="928" y="1430"/>
      <point x="768" y="1546"/>
      <point x="569" y="1546" type="curve" smooth="yes"/>
      <point x="361" y="1546"/>
      <point x="193" y="1413"/>
      <point x="193" y="1196" type="curve" smooth="yes"/>
      <point x="193" y="1097"/>
      <point x="227" y="1004"/>
      <point x="262" y="932" type="curve" smooth="yes"/>
      <point x="283" y="891"/>
      <point x="306" y="852"/>
      <point x="332" y="815" type="curve"/>
      <point x="195" y="724"/>
      <point x="39" y="581"/>
    </contour>
    <contour>
      <point x="482" y="594" type="line"/>
      <point x="517" y="549"/>
      <point x="579" y="464"/>
      <point x="699" y="309" type="curve"/>
      <point x="680" y="295"/>
      <point x="660" y="283"/>
      <point x="638" y="272" type="curve" smooth="yes"/>
      <point x="601" y="253"/>
      <point x="550" y="236"/>
      <point x="495" y="236" type="curve" smooth="yes"/>
      <point x="371" y="236"/>
      <point x="314" y="317"/>
      <point x="314" y="411" type="curve" smooth="yes"/>
      <point x="314" y="494"/>
      <point x="359" y="591"/>
      <point x="443" y="646" type="curve"/>
    </contour>
    <contour>
      <point x="555" y="971" type="curve"/>
      <point x="483" y="1113"/>
      <point x="454" y="1161"/>
      <point x="454" y="1235" type="curve" smooth="yes"/>
      <point x="454" y="1294"/>
      <point x="512" y="1346"/>
      <point x="565" y="1346" type="curve" smooth="yes"/>
      <point x="621" y="1346"/>
      <point x="683" y="1305"/>
      <point x="683" y="1227" type="curve" smooth="yes"/>
      <point x="683" y="1122"/>
      <point x="555" y="976"/>
    </contour>
  </outline>
</glyph>
<glyph name="two" format="1">
  <advance width="1068"/>
  <unicode hex="0032"/>
  <outline>
    <contour>
      <point x="331" y="1070" type="line"/>
      <point x="353" y="1202"/>
      <point x="436" y="1324"/>
      <point x="545" y="1324" type="curve" smooth="yes"/>
      <point x="657" y="1324"/>
      <point x="703" y="1222"/>
      <point x="703" y="1150" type="curve" smooth="yes"/>
      <point x="703" y="835"/>
      <point x="346" y="519"/>
      <point x="118" y="223" type="curve"/>
      <point x="118" y="0" type="line"/>
      <point x="957" y="0" type="line"/>
      <point x="981" y="252" type="line"/>
      <point x="451" y="252" type="line"/>
      <point x="700" y="493"/>
      <point x="993" y="820"/>
      <point x="993" y="1146" type="curve" smooth="yes"/>
      <point x="993" y="1390"/>
      <point x="812" y="1564"/>
      <point x="551" y="1564" type="curve" smooth="yes"/>
      <point x="288" y="1564"/>
      <point x="127" y="1362"/>
      <point x="85" y="1148" type="curve"/>
    </contour>
  </outline>
</glyph>
<glyph name="at" format="1">
  <advance width="1578"/>
  <unicode hex="0040"/>
  <outline>
    <contour>
      <point x="1526" y="775" type="curve" smooth="yes"/>
      <point x="1526" y="1224"/>
      <point x="1172" y="1452"/>
      <point x="819" y="1452" type="curve" smooth="yes"/>
      <point x="326" y="1452"/>
      <point x="55" y="1051"/>
      <point x="55" y="666" type="curve" smooth="yes"/>
      <point x="55" y="310"/>
      <point x="276" y="-32"/>
      <point x="753" y="-32" type="curve" smooth="yes"/>
      <point x="910" y="-32"/>
      <point x="1081" y="16"/>
      <point x="1277" y="124" type="curve"/>
      <point x="1205" y="274" type="line"/>
      <point x="1032" y="189"/>
      <point x="894" y="151"/>
      <point x="769" y="151" type="curve" smooth="yes"/>
      <point x="430" y="151"/>
      <point x="279" y="405"/>
      <point x="279" y="671" type="curve" smooth="yes"/>
      <point x="279" y="957"/>
      <point x="461" y="1258"/>
      <point x="818" y="1258" type="curve" smooth="yes"/>
      <point x="1123" y="1258"/>
      <point x="1336" y="1095"/>
      <point x="1336" y="775" type="curve" smooth="yes"/>
      <point x="1336" y="696"/>
      <point x="1337" y="469"/>
      <point x="1210" y="469" type="curve" smooth="yes"/>
      <point x="1174" y="469"/>
      <point x="1147" y="501"/>
      <point x="1147" y="581" type="curve" smooth="yes"/>
      <point x="1147" y="1050" type="line"/>
      <point x="990" y="1050" type="line"/>
      <point x="954" y="941" type="line"/>
      <point x="914" y="1021"/>
      <point x="824" y="1068"/>
      <point x="731" y="1068" type="curve" smooth="yes"/>
      <point x="598" y="1068"/>
      <point x="454" y="963"/>
      <point x="454" y="699" type="curve" smooth="yes"/>
      <point x="454" y="446"/>
      <point x="594" y="324"/>
      <point x="739" y="324" type="curve" smooth="yes"/>
      <point x="835" y="324"/>
      <point x="926" y="385"/>
      <point x="994" y="510" type="curve"/>
      <point x="1039" y="359"/>
      <point x="1162" y="348"/>
      <point x="1199" y="348" type="curve" smooth="yes"/>
      <point x="1406" y="348"/>
      <point x="1526" y="509"/>
    </contour>
    <contour>
      <point x="924" y="625" type="line"/>
      <point x="895" y="549"/>
      <point x="847" y="511"/>
      <point x="803" y="511" type="curve" smooth="yes"/>
      <point x="743" y="511"/>
      <point x="688" y="573"/>
      <point x="688" y="699" type="curve" smooth="yes"/>
      <point x="688" y="826"/>
      <point x="733" y="911"/>
      <point x="806" y="911" type="curve" smooth="yes"/>
      <point x="841" y="911"/>
      <point x="880" y="889"/>
      <point x="924" y="844" type="curve"/>
    </contour>
  </outline>
</glyph>
<glyph name="E" format="1">
  <advance width="990"/>
  <unicode hex="0045"/>
  <outline>
    <contour>
      <point x="144" y="0" type="line"/>
      <point x="916" y="0" type="line"/>
      <point x="940" y="240" type="line"/>
      <point x="444" y="240" type="line"/>
      <point x="444" y="672" type="line"/>
      <point x="766" y="672" type="line"/>
      <point x="767" y="930" type="line"/>
      <point x="444" y="930" type="line"/>
      <point x="444" y="1296" type="line"/>
      <point x="900" y="1296" type="line"/>
      <point x="924" y="1536" type="line"/>
      <point x="144" y="1536" type="line"/>
    </contour>
  </outline>
</glyph>
<glyph name="J" format="1">
  <advance width="681"/>
  <unicode hex="004A"/>
  <outline>
    <contour>
      <point x="55" y="2" type="line"/>
      <point x="129" y="-18"/>
      <point x="193" y="-28"/>
      <point x="247" y="-28" type="curve" smooth="yes"/>
      <point x="476" y="-28"/>
      <point x="547" y="140"/>
      <point x="547" y="384" type="curve" smooth="yes"/>
      <point x="547" y="1536" type="line"/>
      <point x="247" y="1512" type="line"/>
      <point x="247" y="409" type="line" smooth="yes"/>
      <point x="247" y="301"/>
      <point x="246" y="191"/>
      <point x="135" y="191" type="curve" smooth="yes"/>
      <point x="112" y="191"/>
      <point x="87" y="194"/>
      <point x="55" y="205" type="curve"/>
    </contour>
  </outline>
</glyph>
<glyph name="L" format="1">
  <advance width="960"/>
  <unicode hex="004C"/>
  <outline>
    <contour>
      <point x="144" y="1512" type="line"/>
      <point x="144" y="0" type="line"/>
      <point x="915" y="0" type="line"/>
      <point x="946" y="240" type="line"/>
      <point x="443" y="240" type="line"/>
      <point x="443" y="1536" type="line"/>
    </contour>
  </outline>
</glyph>
<glyph name="P" format="1">
  <advance width="1092"/>
  <unicode hex="0050"/>
  <outline>
    <contour>
      <point x="144" y="-12" type="line"/>
      <point x="444" y="12" type="line"/>
      <point x="444" y="604" type="line"/>
      <point x="717" y="604"/>
      <point x="1052" y="644"/>
      <point x="1052" y="1075" type="curve" smooth="yes"/>
      <point x="1052" y="1552"/>
      <point x="647" y="1536"/>
      <point x="336" y="1536" type="curve" smooth="yes"/>
      <point x="144" y="1536" type="line"/>
    </contour>
    <contour>
      <point x="446" y="847" type="line"/>
      <point x="446" y="1296" type="line"/>
      <point x="489" y="1296" type="line" smooth="yes"/>
      <point x="657" y="1296"/>
      <point x="753" y="1261"/>
      <point x="753" y="1077" type="curve" smooth="yes"/>
      <point x="753" y="889"/>
      <point x="636" y="847"/>
      <point x="497" y="847" type="curve" smooth="yes"/>
    </contour>
  </outline>
</glyph>
<glyph name="d" format="1">
  <advance width="1061"/>
  <unicode hex="0064"/>
  <outline>
    <contour>
      <point x="940" y="12" type="line"/>
      <point x="940" y="1536" type="line"/>
      <point x="652" y="1500" type="line"/>
      <point x="652" y="1000" type="line"/>
      <point x="610" y="1094"/>
      <point x="513" y="1167"/>
      <point x="411" y="1167" type="curve" smooth="yes"/>
      <point x="184" y="1167"/>
      <point x="74" y="1001"/>
      <point x="74" y="576" type="curve" smooth="yes"/>
      <point x="74" y="160"/>
      <point x="194" y="-27"/>
      <point x="405" y="-27" type="curve" smooth="yes"/>
      <point x="573.421" y="-27"/>
      <point x="627.717" y="57.6595"/>
      <point x="652" y="144" type="curve"/>
      <point x="722" y="-12" type="line"/>
    </contour>
    <contour>
      <point x="652" y="480" type="line" smooth="yes"/>
      <point x="652" y="240"/>
      <point x="581" y="179"/>
      <point x="512" y="179" type="curve" smooth="yes"/>
      <point x="371" y="179"/>
      <point x="362" y="363"/>
      <point x="362" y="576" type="curve" smooth="yes"/>
      <point x="362" y="788"/>
      <point x="371" y="956"/>
      <point x="512" y="956" type="curve" smooth="yes"/>
      <point x="566.587" y="956"/>
      <point x="615" y="921"/>
      <point x="652" y="864" type="curve"/>
    </contour>
  </outline>
</glyph>
<glyph name="e" format="1">
  <advance width="965"/>
  <unicode hex="0065"/>
  <outline>
    <contour>
      <point x="904" y="536" type="line"/>
      <point x="904" y="540"/>
      <point x="915" y="547"/>
      <point x="915" y="570" type="curve" smooth="yes"/>
      <point x="915" y="923"/>
      <point x="776" y="1167"/>
      <point x="502" y="1167" type="curve" smooth="yes"/>
      <point x="214" y="1167"/>
      <point x="70" y="923"/>
      <point x="70" y="570" type="curve" smooth="yes"/>
      <point x="70" y="220"/>
      <point x="211" y="-27"/>
      <point x="492" y="-27" type="curve" smooth="yes"/>
      <point x="702" y="-27"/>
      <point x="822" y="104"/>
      <point x="875" y="290" type="curve"/>
      <point x="657" y="373" type="line"/>
      <point x="649" y="357"/>
      <point x="587" y="185"/>
      <point x="497" y="185" type="curve" smooth="yes"/>
      <point x="392" y="185"/>
      <point x="357" y="391"/>
      <point x="357" y="536" type="curve"/>
    </contour>
    <contour>
      <point x="357" y="702" type="line"/>
      <point x="357" y="854"/>
      <point x="427" y="969"/>
      <point x="497" y="969" type="curve" smooth="yes"/>
      <point x="595" y="969"/>
      <point x="632" y="854"/>
      <point x="632" y="702" type="curve"/>
    </contour>
  </outline>
</glyph>
<glyph name="i" format="1">
  <advance width="538"/>
  <unicode hex="0069"/>
  <outline>
    <contour>
      <point x="126" y="1598" type="line"/>
      <point x="126" y="1300" type="line"/>
      <point x="414" y="1312" type="line"/>
      <point x="414" y="1618" type="line"/>
    </contour>
    <contour>
      <point x="126" y="-12" type="line"/>
      <point x="414" y="12" type="line"/>
      <point x="414" y="1152" type="line"/>
      <point x="126" y="1128" type="line"/>
    </contour>
  </outline>
</glyph>
<glyph name="j" format="1">
  <advance width="543"/>
  <unicode hex="006A"/>
  <outline>
    <contour>
      <point x="-24" y="-269" type="line"/>
      <point x="52" y="-282"/>
      <point x="115" y="-288"/>
      <point x="168" y="-288" type="curve" smooth="yes"/>
      <point x="423" y="-288"/>
      <point x="423" y="-163"/>
      <point x="423" y="54" type="curve" smooth="yes"/>
      <point x="423" y="1152" type="line"/>
      <point x="135" y="1128" type="line"/>
      <point x="135" y="54" type="line" smooth="yes"/>
      <point x="135" y="-57"/>
      <point x="125" y="-96"/>
      <point x="-24" y="-96" type="curve"/>
    </contour>
    <contour>
      <point x="135" y="1598" type="line"/>
      <point x="135" y="1300" type="line"/>
      <point x="423" y="1312" type="line"/>
      <point x="423" y="1618" type="line"/>
    </contour>
  </outline>
</glyph>
<glyph name="r" format="1">
  <advance width="828"/>
  <unicode hex="0072"/>
  <outline>
    <contour>
      <point x="124" y="-12" type="line"/>
      <point x="412" y="12" type="line"/>
      <point x="412" y="768" type="line"/>
      <point x="525" y="866"/>
      <point x="747" y="882"/>
      <point x="796" y="882" type="curve"/>
      <point x="796" y="1163" type="line"/>
      <point x="592" y="1163"/>
      <point x="482" y="1068"/>
      <point x="412" y="967" type="curve"/>
      <point x="412" y="1152" type="line"/>
      <point x="124" y="1128" type="line"/>
    </contour>
  </outline>
</glyph>
<glyph name="t" format="1">
  <advance width="738"/>
  <unicode hex="0074"/>
  <outline>
    <contour>
      <point x="38" y="1152" type="line"/>
      <point x="26" y="936" type="line"/>
      <point x="187" y="936" type="line"/>
      <point x="187" y="299" type="line" smooth="yes"/>
      <point x="187" y="33"/>
      <point x="366" y="-22"/>
      <point x="518" y="-22" type="curve" smooth="yes"/>
      <point x="597" y="-22"/>
      <point x="672" y="-7"/>
      <point x="707" y="1" type="curve"/>
      <point x="707" y="199" type="line"/>
      <point x="667" y="192"/>
      <point x="627" y="187"/>
      <point x="595" y="187" type="curve" smooth="yes"/>
      <point x="520" y="187"/>
      <point x="475" y="215"/>
      <point x="475" y="301" type="curve" smooth="yes"/>
      <point x="475" y="936" type="line"/>
      <point x="698" y="936" type="line"/>
      <point x="710" y="1152" type="line"/>
      <point x="474" y="1152" type="line"/>
      <point x="474" y="1438" type="line"/>
      <point x="224" y="1402" type="line"/>
      <point x="195" y="1152" type="line"/>
    </contour>
  </outline>
</glyph>
<glyph name="currency" format="1">
  <advance width="1213"/>
  <unicode hex="00A4"/>
  <outline>
    <contour>
      <point x="321" y="568" type="line"/>
      <point x="390" y="513"/>
      <point x="484" y="482"/>
      <point x="607" y="482" type="curve" smooth="yes"/>
      <point x="606" y="482" type="line" smooth="yes"/>
      <point x="730" y="482"/>
      <point x="823" y="513"/>
      <point x="894" y="569" type="curve"/>
      <point x="1033" y="447" type="line"/>
      <point x="1128" y="556" type="line"/>
      <point x="986" y="680" type="line"/>
      <point x="1021" y="747"/>
      <point x="1038" y="824"/>
      <point x="1038" y="912" type="curve" smooth="yes"/>
      <point x="1038" y="1001"/>
      <point x="1020" y="1082"/>
      <point x="983" y="1150" type="curve"/>
      <point x="1128" y="1278" type="line"/>
      <point x="1033" y="1387" type="line"/>
      <point x="889" y="1260" type="line"/>
      <point x="820" y="1312"/>
      <point x="728" y="1343"/>
      <point x="608" y="1343" type="curve" smooth="yes"/>
      <point x="488" y="1343"/>
      <point x="395" y="1313"/>
      <point x="326" y="1261" type="curve"/>
      <point x="183" y="1387" type="line"/>
      <point x="88" y="1278" type="line"/>
      <point x="232" y="1151" type="line"/>
      <point x="193" y="1083"/>
      <point x="176" y="1003"/>
      <point x="176" y="912" type="curve" smooth="yes"/>
      <point x="176" y="824"/>
      <point x="193" y="746"/>
      <point x="228" y="679" type="curve"/>
      <point x="88" y="556" type="line"/>
      <point x="183" y="447" type="line"/>
    </contour>
    <contour>
      <point x="607" y="698" type="curve" smooth="yes"/>
      <point x="480" y="698"/>
      <point x="416" y="769"/>
      <point x="416" y="912" type="curve" smooth="yes"/>
      <point x="416" y="1055"/>
      <point x="480" y="1127"/>
      <point x="607" y="1127" type="curve" smooth="yes"/>
      <point x="734" y="1127"/>
      <point x="798" y="1055"/>
      <point x="798" y="912" type="curve" smooth="yes"/>
      <point x="798" y="769"/>
      <point x="734" y="698"/>
    </contour>
  </outline>
</glyph>
<glyph name="logicalnot" format="1">
  <advance width="789"/>
  <unicode hex="00AC"/>
  <outline>
    <contour>
      <point x="95" y="480" type="line"/>
      <point x="527" y="480" type="line"/>
      <point x="527" y="288" type="line"/>
      <point x="671" y="288" type="line"/>
      <point x="671" y="718" type="line"/>
      <point x="95" y="718" type="line"/>
    </contour>
  </outline>
</glyph>
<glyph name="onequarter" format="1">
  <advance width="1991"/>
  <unicode hex="00BC"/>
  <outline>
    <contour>
      <point x="680" y="0" type="line"/>
      <point x="968" y="0" type="line"/>
      <point x="1352" y="1536" type="line"/>
      <point x="1064" y="1536" type="line"/>
    </contour>
    <contour>
      <point x="84" y="576" type="line"/>
      <point x="678" y="576" type="line"/>
      <point x="690" y="768" type="line"/>
      <point x="503" y="768" type="line"/>
      <point x="503" y="1536" type="line"/>
      <point x="402" y="1536" type="line"/>
      <point x="71" y="1331" type="line"/>
      <point x="71" y="1190" type="line"/>
      <point x="97" y="1190" type="line" smooth="yes"/>
      <point x="124" y="1190"/>
      <point x="166" y="1194"/>
      <point x="201" y="1198" type="curve" smooth="yes"/>
      <point x="263" y="1206" type="line"/>
      <point x="263" y="768" type="line"/>
      <point x="84" y="768" type="line"/>
    </contour>
    <contour>
      <point x="1572" y="-48" type="line"/>
      <point x="1820" y="-32" type="line"/>
      <point x="1820" y="192" type="line"/>
      <point x="1929" y="192" type="line"/>
      <point x="1945" y="370" type="line"/>
      <point x="1820" y="370" type="line"/>
      <point x="1820" y="960" type="line"/>
      <point x="1534" y="960" type="line"/>
      <point x="1182" y="360" type="line"/>
      <point x="1182" y="192" type="line"/>
      <point x="1572" y="192" type="line"/>
    </contour>
    <contour>
      <point x="1367" y="370" type="line"/>
      <point x="1572" y="711" type="line"/>
      <point x="1572" y="370" type="line"/>
    </contour>
  </outline>
</glyph>
<glyph name="Eth" format="1">
  <advance width="1138"/>
  <unicode hex="00D0"/>
  <outline>
    <contour>
      <point x="148" y="0" type="line"/>
      <point x="515" y="0" type="line" smooth="yes"/>
      <point x="918" y="0"/>
      <point x="1065" y="373"/>
      <point x="1065" y="762" type="curve" smooth="yes"/>
      <point x="1065" y="1283"/>
      <point x="866" y="1536"/>
      <point x="462" y="1536" type="curve" smooth="yes"/>
      <point x="148" y="1536" type="line"/>
    </contour>
    <contour>
      <point x="482" y="1296" type="line" smooth="yes"/>
      <point x="785" y="1296"/>
      <point x="765" y="901"/>
      <point x="765" y="705" type="curve" smooth="yes"/>
      <point x="765" y="491"/>
      <point x="719" y="240"/>
      <point x="490" y="240" type="curve" smooth="yes"/>
      <point x="447" y="240" type="line"/>
      <point x="447" y="1296" type="line"/>
    </contour>
    <contour>
      <point x="5" y="672" type="line"/>
      <point x="581" y="672" type="line"/>
      <point x="581" y="864" type="line"/>
      <point x="5" y="864" type="line"/>
    </contour>
  </outline>
</glyph>
<glyph name="ae" format="1">
  <advance width="1457"/>
  <unicode hex="00E6"/>
  <outline>
    <contour>
      <point x="1399" y="536" type="line"/>
      <point x="1399" y="540"/>
      <point x="1400" y="548"/>
      <point x="1403" y="556" type="curve" smooth="yes"/>
      <point x="1407" y="570" type="line"/>
      <point x="1407" y="923"/>
      <point x="1268" y="1167"/>
      <point x="994" y="1167" type="curve" smooth="yes"/>
      <point x="883" y="1167"/>
      <point x="795" y="1116"/>
      <point x="723" y="1032" type="curve"/>
      <point x="667" y="1116"/>
      <point x="589" y="1167"/>
      <point x="478" y="1167" type="curve" smooth="yes"/>
      <point x="311" y="1167"/>
      <point x="123" y="1104"/>
      <point x="94" y="875" type="curve"/>
      <point x="374" y="826" type="line"/>
      <point x="382" y="888"/>
      <point x="408" y="956"/>
      <point x="478" y="956" type="curve" smooth="yes"/>
      <point x="562" y="956"/>
      <point x="561" y="846"/>
      <point x="561" y="740" type="curve"/>
      <point x="360" y="728"/>
      <point x="54" y="653"/>
      <point x="54" y="327" type="curve" smooth="yes"/>
      <point x="54" y="123"/>
      <point x="178" y="-27"/>
      <point x="365" y="-27" type="curve" smooth="yes"/>
      <point x="495" y="-27"/>
      <point x="644" y="11"/>
      <point x="713" y="144" type="curve"/>
      <point x="780" y="36"/>
      <point x="868" y="-27"/>
      <point x="984" y="-27" type="curve" smooth="yes"/>
      <point x="1194" y="-27"/>
      <point x="1314" y="104"/>
      <point x="1367" y="290" type="curve"/>
      <point x="1149" y="373" type="line"/>
      <point x="1141" y="357"/>
      <point x="1079" y="185"/>
      <point x="989" y="185" type="curve" smooth="yes"/>
      <point x="884" y="185"/>
      <point x="849" y="391"/>
      <point x="849" y="536" type="curve"/>
    </contour>
    <contour>
      <point x="336" y="331" type="curve" smooth="yes"/>
      <point x="336" y="508"/>
      <point x="433" y="568"/>
      <point x="561" y="568" type="curve"/>
      <point x="561" y="382" type="line" smooth="yes"/>
      <point x="561" y="288"/>
      <point x="515" y="179"/>
      <point x="450" y="179" type="curve" smooth="yes"/>
      <point x="371" y="179"/>
      <point x="336" y="240"/>
    </contour>
    <contour>
      <point x="849" y="702" type="line"/>
      <point x="849" y="713" type="line"/>
      <point x="852" y="860"/>
      <point x="921" y="969"/>
      <point x="989" y="969" type="curve" smooth="yes"/>
      <point x="1087" y="969"/>
      <point x="1124" y="854"/>
      <point x="1124" y="702" type="curve"/>
    </contour>
  </outline>
</glyph>
<glyph name="Dcroat" format="1">
  <advance width="1135"/>
  <unicode hex="0110"/>
  <outline>
    <contour>
      <point x="35" y="716" type="line"/>
      <point x="145" y="716" type="line"/>
      <point x="145" y="0" type="line"/>
      <point x="512" y="0" type="line" smooth="yes"/>
      <point x="915" y="0"/>
      <point x="1062" y="373"/>
      <point x="1062" y="762" type="curve" smooth="yes"/>
      <point x="1062" y="1283"/>
      <point x="863" y="1536"/>
      <point x="459" y="1536" type="curve" smooth="yes"/>
      <point x="145" y="1536" type="line"/>
      <point x="145" y="908" type="line"/>
      <point x="54" y="908" type="line"/>
    </contour>
    <contour>
      <point x="479" y="1296" type="line" smooth="yes"/>
      <point x="782" y="1296"/>
      <point x="762" y="901"/>
      <point x="762" y="705" type="curve" smooth="yes"/>
      <point x="762" y="491"/>
      <point x="716" y="240"/>
      <point x="487" y="240" type="curve" smooth="yes"/>
      <point x="444" y="240" type="line"/>
      <point x="444" y="716" type="line"/>
      <point x="611" y="716" type="line"/>
      <point x="630" y="908" type="line"/>
      <point x="444" y="908" type="line"/>
      <point x="444" y="1296" type="line"/>
    </contour>
  </outline>
</glyph>
<glyph name="dcroat" format="1">
  <advance width="1067"/>
  <unicode hex="0111"/>
  <outline>
    <contour>
      <point x="944" y="12" type="line"/>
      <point x="944" y="1536" type="line"/>
      <point x="656" y="1500" type="line"/>
      <point x="656" y="1000" type="line"/>
      <point x="631" y="1031"/>
      <point x="604" y="1058"/>
      <point x="575" y="1083" type="curve" smooth="yes"/>
      <point x="527" y="1126"/>
      <point x="459" y="1167"/>
      <point x="395" y="1167" type="curve" smooth="yes"/>
      <point x="168" y="1167"/>
      <point x="78" y="1001"/>
      <point x="78" y="576" type="curve" smooth="yes"/>
      <point x="78" y="160"/>
      <point x="198" y="-27"/>
      <point x="409" y="-27" type="curve" smooth="yes"/>
      <point x="515" y="-27"/>
      <point x="577" y="15"/>
      <point x="612" y="58" type="curve" smooth="yes"/>
      <point x="633" y="83"/>
      <point x="647" y="112"/>
      <point x="656" y="144" type="curve"/>
      <point x="726" y="-12" type="line"/>
    </contour>
    <contour>
      <point x="656" y="480" type="line" smooth="yes"/>
      <point x="656" y="240"/>
      <point x="585" y="179"/>
      <point x="516" y="179" type="curve" smooth="yes"/>
      <point x="375" y="179"/>
      <point x="366" y="363"/>
      <point x="366" y="576" type="curve" smooth="yes"/>
      <point x="366" y="788"/>
      <point x="375" y="956"/>
      <point x="516" y="956" type="curve" smooth="yes"/>
      <point x="551" y="956"/>
      <point x="585" y="933"/>
      <point x="612" y="910" type="curve" smooth="yes"/>
      <point x="627" y="897"/>
      <point x="642" y="881"/>
      <point x="656" y="864" type="curve"/>
    </contour>
    <contour>
      <point x="505" y="1248" type="line"/>
      <point x="1081" y="1248" type="line"/>
      <point x="1081" y="1440" type="line"/>
      <point x="505" y="1440" type="line"/>
    </contour>
  </outline>
</glyph>
<glyph name="OE" format="1">
  <advance width="1617"/>
  <unicode hex="0152"/>
  <outline>
    <contour>
      <point x="768" y="1424" type="line"/>
      <point x="716" y="1503"/>
      <point x="649" y="1546"/>
      <point x="561" y="1546" type="curve" smooth="yes"/>
      <point x="229" y="1546"/>
      <point x="86" y="1247"/>
      <point x="86" y="810" type="curve" smooth="yes"/>
      <point x="86" y="384"/>
      <point x="168" y="-27"/>
      <point x="561" y="-27" type="curve" smooth="yes"/>
      <point x="653" y="-27"/>
      <point x="719" y="19"/>
      <point x="768" y="96" type="curve"/>
      <point x="768" y="0" type="line"/>
      <point x="1558" y="0" type="line"/>
      <point x="1558" y="240" type="line"/>
      <point x="1068" y="240" type="line"/>
      <point x="1068" y="672" type="line"/>
      <point x="1367" y="672" type="line"/>
      <point x="1367" y="930" type="line"/>
      <point x="1068" y="930" type="line"/>
      <point x="1068" y="1296" type="line"/>
      <point x="1542" y="1296" type="line"/>
      <point x="1542" y="1536" type="line"/>
      <point x="768" y="1536" type="line"/>
    </contour>
    <contour>
      <point x="561" y="228" type="curve" smooth="yes"/>
      <point x="401" y="228"/>
      <point x="385" y="449"/>
      <point x="385" y="810" type="curve" smooth="yes"/>
      <point x="385" y="993"/>
      <point x="397" y="1307"/>
      <point x="561" y="1307" type="curve" smooth="yes"/>
      <point x="730" y="1307"/>
      <point x="768" y="1067"/>
      <point x="768" y="884" type="curve" smooth="yes"/>
      <point x="768" y="681" type="line" smooth="yes"/>
      <point x="768" y="397"/>
      <point x="725" y="228"/>
    </contour>
  </outline>
</glyph>
<glyph name="oe" format="1">
  <advance width="1539"/>
  <unicode hex="0153"/>
  <outline>
    <contour>
      <point x="1482" y="536" type="line"/>
      <point x="1482" y="540"/>
      <point x="1483" y="548"/>
      <point x="1486" y="556" type="curve" smooth="yes"/>
      <point x="1490" y="570" type="line"/>
      <point x="1490" y="923"/>
      <point x="1351" y="1167"/>
      <point x="1077" y="1167" type="curve" smooth="yes"/>
      <point x="950" y="1167"/>
      <point x="865" y="1105"/>
      <point x="793" y="997" type="curve"/>
      <point x="725" y="1104"/>
      <point x="619" y="1167"/>
      <point x="502" y="1167" type="curve" smooth="yes"/>
      <point x="214" y="1167"/>
      <point x="70" y="922"/>
      <point x="70" y="577" type="curve" smooth="yes"/>
      <point x="70" y="221"/>
      <point x="214" y="-27"/>
      <point x="502" y="-27" type="curve" smooth="yes"/>
      <point x="619" y="-27"/>
      <point x="723" y="32"/>
      <point x="791" y="132" type="curve"/>
      <point x="860" y="32"/>
      <point x="943" y="-27"/>
      <point x="1067" y="-27" type="curve" smooth="yes"/>
      <point x="1277" y="-27"/>
      <point x="1397" y="104"/>
      <point x="1450" y="290" type="curve"/>
      <point x="1232" y="373" type="line"/>
      <point x="1224" y="357"/>
      <point x="1162" y="185"/>
      <point x="1072" y="185" type="curve" smooth="yes"/>
      <point x="967" y="185"/>
      <point x="932" y="391"/>
      <point x="932" y="536" type="curve"/>
    </contour>
    <contour>
      <point x="500" y="187" type="curve" smooth="yes"/>
      <point x="357" y="187"/>
      <point x="358" y="434"/>
      <point x="358" y="577" type="curve" smooth="yes"/>
      <point x="358" y="716"/>
      <point x="357" y="964"/>
      <point x="501" y="964" type="curve" smooth="yes"/>
      <point x="642" y="964"/>
      <point x="645" y="716"/>
      <point x="645" y="577" type="curve" smooth="yes"/>
      <point x="645" y="434"/>
      <point x="642" y="187"/>
    </contour>
    <contour>
      <point x="932" y="702" type="line"/>
      <point x="932" y="854"/>
      <point x="1002" y="969"/>
      <point x="1072" y="969" type="curve" smooth="yes"/>
      <point x="1170" y="969"/>
      <point x="1207" y="854"/>
      <point x="1207" y="702" type="curve"/>
    </contour>
  </outline>
</glyph>
<glyph name="pi" format="1">
  <advance width="538"/>
  <unicode hex="03C0"/>
  <outline>
    <contour>
      <point x="126" y="-12" type="line"/>
      <point x="414" y="12" type="line"/>
      <point x="414" y="1152" type="line"/>
      <point x="126" y="1128" type="line"/>
    </contour>
    <contour>
      <point x="-20" y="1248" type="line"/>
      <point x="556" y="1248" type="line"/>
      <point x="556" y="1440" type="line"/>
      <point x="-20" y="1440" type="line"/>
    </contour>
    <contour>
      <point x="124" y="-12" type="line"/>
      <point x="412" y="12" type="line"/>
      <point x="412" y="1152" type="line"/>
      <point x="124" y="1128" type="line"/>
    </contour>
  </outline>
</glyph>
